:FULLY-SPECIFIED
:FORCE-ALL-JOINTS-BE-3DOF
:DEGREES
2650
root -0.857985 15.2756 -28.9439 1152.49 -80.8837 -75.3977
lfemur -31.2495 24.127 -2.07691
ltibia 75.6957 0 0
lfoot 7.02276 10.8687 0
ltoes -7.15716 0 0
rfemur -36.5202 -26.0667 23.556
rtibia 63.9005 0 0
rfoot -20.507 -11.3962 0
rtoes -8.11579 0 0
lowerback 16.3872 2.08978 -0.438788
upperback -0.877476 2.90014 2.34432
thorax -9.99875 1.47776 2.17204
lowerneck -4.89803 8.65894 1.24924
upperneck 5.56572 11.7106 0.671865
head 1.85364 5.94737 0.522547
lclavicle -4.85474e-14 -1.15702e-14 0
lhumerus 69.1358 -36.4458 34.7452
lradius 124.566 0 0
lwrist 15.7025 0 0
lhand -36.8038 397.964 0
lfingers 7.12502 0 0
lthumb -9.86777 -651.853 0
rclavicle -4.85474e-14 -1.15702e-14 0
rhumerus -31.1017 42.5083 -88.4701
rradius 93.9688 0 0
rwrist -18.0878 0 0
rhand -17.272 -384.574 0
rfingers 7.12502 0 0
rthumb 8.95398 305.999 0
2651
root -0.987861 15.2747 -28.9112 1156.98 -80.4105 -80.0541
lfemur -31.3864 24.417 -1.93756
ltibia 74.2109 0 0
lfoot 7.86216 10.8054 0
ltoes -6.22852 0 0
rfemur -36.1013 -25.7662 23.3324
rtibia 64.0317 0 0
rfoot -20.8107 -11.3189 0
rtoes -8.15036 0 0
lowerback 16.3539 2.25481 -0.264126
upperback -0.878569 3.14564 2.26324
thorax -9.96804 1.58305 1.92599
lowerneck -4.84339 8.85952 1.40769
upperneck 5.70683 11.9717 0.557832
head 1.90792 6.07645 0.469318
lclavicle -5.01206e-14 -1.1616e-14 0
lhumerus 66.7557 -34.9152 36.2212
lradius 124.165 0 0
lwrist 13.8829 0 0
lhand -37.2061 397.459 0
lfingers 7.12502 0 0
lthumb -10.2561 -652.376 0
rclavicle -5.01206e-14 -1.1616e-14 0
rhumerus -32.1252 43.2402 -89.2454
rradius 94.9284 0 0
rwrist -21.075 0 0
rhand -16.5601 -384.422 0
rfingers 7.12502 0 0
rthumb 9.63981 306.196 0
2652
root -1.12262 15.2728 -28.8765 1161.67 -79.8352 -84.918
lfemur -31.5469 24.7203 -1.80897
ltibia 72.6503 0 0
lfoot 8.71345 10.7539 0
ltoes -5.27632 0 0
rfemur -35.678 -25.4406 23.0969
rtibia 64.2012 0 0
rfoot -21.1259 -11.249 0
rtoes -8.17314 0 0
lowerback 16.3213 2.42894 -0.0849145
upperback -0.87991 3.40355 2.1774
thorax -9.93762 1.69389 1.66912
lowerneck -4.77724 9.05152 1.56089
upperneck 5.85135 12.2198 0.45346
head 1.96623 6.1987 0.419011
lclavicle -5.17284e-14 -1.1651e-14 0
lhumerus 64.1655 -33.318 37.8413
lradius 123.713 0 0
lwrist 12.0057 0 0
lhand -37.5977 396.932 0
lfingers 7.12502 0 0
lthumb -10.6343 -652.925 0
rclavicle -5.17284e-14 -1.1651e-14 0
rhumerus -33.1293 44.0047 -90.0127
rradius 95.9431 0 0
rwrist -24.2109 0 0
rhand -15.809 -384.27 0
rfingers 7.12502 0 0
rthumb 10.3634 306.396 0
2653
root -1.26235 15.2697 -28.8399 1166.57 -79.1541 -89.9935
lfemur -31.7318 25.0372 -1.69171
ltibia 71.0121 0 0
lfoot 9.57622 10.7146 0
ltoes -4.30071 0 0
rfemur -35.2504 -25.0889 22.8492
rtibia 64.4107 0 0
rfoot -21.4528 -11.1869 0
rtoes -8.18365 0 0
lowerback 16.2893 2.61239 0.0988658
upperback -0.881527 3.67414 2.08668
thorax -9.90755 1.81042 1.40123
lowerneck -4.69918 9.23441 1.7085
upperneck 5.99927 12.4541 0.359242
head 2.02869 6.31372 0.371793
lclavicle -5.33704e-14 -1.16748e-14 0
lhumerus 61.359 -31.6528 39.61
lradius 123.208 0 0
lwrist 10.0703 0 0
lhand -37.9781 396.382 0
lfingers 7.12502 0 0
lthumb -11.0017 -653.499 0
rclavicle -5.33704e-14 -1.16748e-14 0
rhumerus -34.1125 44.8027 -90.7709
rradius 97.0142 0 0
rwrist -27.499 0 0
rhand -15.0177 -384.118 0
rfingers 7.12502 0 0
rthumb 11.1257 306.598 0
2654
root -1.40714 15.2654 -28.8011 1171.68 -78.3636 -95.2847
lfemur -31.9422 25.3682 -1.58636
ltibia 69.2949 0 0
lfoot 10.45 10.6879 0
ltoes -3.30184 0 0
rfemur -34.8187 -24.7106 22.589
rtibia 64.6615 0 0
rfoot -21.7915 -11.1332 0
rtoes -8.18144 0 0
lowerback 16.2582 2.80537 0.287232
upperback -0.883447 3.95771 1.99097
thorax -9.87789 1.93278 1.12213
lowerneck -4.60878 9.40768 1.85015
upperneck 6.15061 12.6738 0.275675
head 2.09539 6.42112 0.32783
lclavicle -5.50462e-14 -1.16869e-14 0
lhumerus 58.3299 -29.918 41.5319
lradius 122.648 0 0
lwrist 8.07591 0 0
lhand -38.3463 395.809 0
lfingers 7.12502 0 0
lthumb -11.3574 -654.099 0
rclavicle -5.50462e-14 -1.16869e-14 0
rhumerus -35.0731 45.6346 -91.5192
rradius 98.1431 0 0
rwrist -30.9424 0 0
rhand -14.1853 -383.968 0
rfingers 7.12502 0 0
rthumb 11.9276 306.802 0
2655
root -1.55709 15.2598 -28.7603 1177 -77.4602 -100.796
lfemur -32.1789 25.7134 -1.49348
ltibia 67.497 0 0
lfoot 11.3345 10.6744 0
ltoes -2.27988 0 0
rfemur -34.3832 -24.3047 22.3161
rtibia 64.9552 0 0
rfoot -22.1424 -11.0883 0
rtoes -8.16604 0 0
lowerback 16.2278 3.00812 0.480201
upperback -0.885696 4.25453 1.89016
thorax -9.84871 2.06108 0.831601
lowerneck -4.50565 9.5708 1.9855
upperneck 6.30536 12.8783 0.203255
head 2.16646 6.52052 0.28729
lclavicle -5.67554e-14 -1.16867e-14 0
lhumerus 55.0719 -28.1124 43.6114
lradius 122.031 0 0
lwrist 6.02186 0 0
lhand -38.7016 395.212 0
lfingers 7.12502 0 0
lthumb -11.7008 -654.727 0
rclavicle -5.67554e-14 -1.16867e-14 0
rhumerus -36.0096 46.5012 -92.2567
rradius 99.3312 0 0
rwrist -34.5447 0 0
rhand -13.3108 -383.818 0
rfingers 7.12502 0 0
rthumb 12.77 307.007 0
2656
root -1.7123 15.2529 -28.7173 1182.53 -76.4401 -106.531
lfemur -32.4429 26.0734 -1.41367
ltibia 65.6168 0 0
lfoot 12.2292 10.6744 0
ltoes -1.23498 0 0
rfemur -33.9441 -23.8706 22.0303
rtibia 65.2932 0 0
rfoot -22.5056 -11.0525 0
rtoes -8.13699 0 0
lowerback 16.1983 3.22084 0.67779
upperback -0.888301 4.56488 1.78413
thorax -9.82008 2.19546 0.529446
lowerneck -4.38937 9.72324 2.11419
upperneck 6.46354 13.0666 0.142477
head 2.242 6.61151 0.250338
lclavicle -5.84976e-14 -1.16738e-14 0
lhumerus 51.5785 -26.2344 45.8531
lradius 121.356 0 0
lwrist 3.90747 0 0
lhand -39.0432 394.592 0
lfingers 7.12502 0 0
lthumb -12.0311 -655.381 0
rclavicle -5.84976e-14 -1.16738e-14 0
rhumerus -36.9204 47.4031 -92.9823
rradius 100.58 0 0
rwrist -38.3091 0 0
rhand -12.3933 -383.669 0
rfingers 7.12502 0 0
rthumb 13.654 307.213 0
2657
root -1.87284 15.2447 -28.6721 1188.29 -75.2997 -112.494
lfemur -32.7353 26.4484 -1.34751
ltibia 63.6528 0 0
lfoot 13.1338 10.6885 0
ltoes -0.167297 0 0
rfemur -33.5015 -23.4076 21.7311
rtibia 65.677 0 0
rfoot -22.8814 -11.0265 0
rtoes -8.09383 0 0
lowerback 16.1697 3.44376 0.880018
upperback -0.89129 4.88905 1.67278
thorax -9.79206 2.33606 0.215462
lowerneck -4.25954 9.86449 2.23586
upperneck 6.62515 13.2382 0.0938371
head 2.32212 6.69372 0.217142
lclavicle -6.02724e-14 -1.16476e-14 0
lhumerus 47.8435 -24.2827 48.2615
lradius 120.62 0 0
lwrist 1.73204 0 0
lhand -39.3704 393.947 0
lfingers 7.12502 0 0
lthumb -12.3475 -656.064 0
rclavicle -6.02724e-14 -1.16476e-14 0
rhumerus -37.804 48.3409 -93.6953
rradius 101.89 0 0
rwrist -42.239 0 0
rhand -11.4317 -383.521 0
rfingers 7.12502 0 0
rthumb 14.5804 307.421 0
